<svg xmlns="http://www.w3.org/2000/svg" viewBox="0 0 1440 320"><path fill="#0099ff" fill-opacity="1" d="M0,192L17.1,186.7C34.3,181,69,171,103,186.7C137.1,203,171,245,206,234.7C240,224,274,160,309,133.3C342.9,107,377,117,411,133.3C445.7,149,480,171,514,165.3C548.6,160,583,128,617,117.3C651.4,107,686,117,720,149.3C754.3,181,789,235,823,234.7C857.1,235,891,181,926,154.7C960,128,994,128,1029,138.7C1062.9,149,1097,171,1131,202.7C1165.7,235,1200,277,1234,256C1268.6,235,1303,149,1337,128C1371.4,107,1406,149,1423,170.7L1440,192L1440,320L1422.9,320C1405.7,320,1371,320,1337,320C1302.9,320,1269,320,1234,320C1200,320,1166,320,1131,320C1097.1,320,1063,320,1029,320C994.3,320,960,320,926,320C891.4,320,857,320,823,320C788.6,320,754,320,720,320C685.7,320,651,320,617,320C582.9,320,549,320,514,320C480,320,446,320,411,320C377.1,320,343,320,309,320C274.3,320,240,320,206,320C171.4,320,137,320,103,320C68.6,320,34,320,17,320L0,320Z"></path></svg>